<?xml version="1.0" standalone="no"?><!DOCTYPE svg PUBLIC "-//W3C//DTD SVG 1.1//EN" "http://www.w3.org/Graphics/SVG/1.1/DTD/svg11.dtd"><svg t="1606199206582" class="icon" viewBox="0 0 1024 1024" version="1.1" xmlns="http://www.w3.org/2000/svg" p-id="2917" xmlns:xlink="http://www.w3.org/1999/xlink" width="200" height="200"><defs><style type="text/css"></style></defs><path d="M0 0h1024v1024H0z" fill="#000000" opacity=".01" p-id="2918"></path><path d="M676.1984 115.2c142.5408 0 258.2016 125.7472 258.2016 280.32 0 74.24-20.6336 123.6992-70.2464 202.0352-6.144 10.2912-14.4384 20.5824-20.6336 30.9248-28.928 39.168-68.1472 80.384-113.6128 123.648a1750.016 1750.016 0 0 1-113.6128 96.9216c-22.6816 18.5344-64 47.36-55.7568 41.216-16.4864 12.3392-33.024 18.5344-49.5616 18.5344-16.5376 0-35.1232-6.144-47.5136-16.4864 8.2944 6.144-33.024-24.7296-55.7568-41.216a1748.6336 1748.6336 0 0 1-113.6128-96.9216c-45.4144-43.264-84.6848-84.48-113.5616-123.648-8.2944-10.2912-14.4896-20.6336-20.6848-30.9248-49.5616-80.384-70.1952-127.7952-70.1952-201.984-2.048-156.672 111.5136-282.4192 256.1024-282.4192 64 0 119.808 26.7776 165.2224 74.24 45.4656-47.4624 101.2224-74.24 165.2224-74.24z" fill="#FF1957" p-id="2919"></path></svg>